HIERARCHY
ROOT Hips
{
  OFFSET -32.5998 29.0326 120.673
  CHANNELS 6 Xposition Yposition Zposition Zrotation Xrotation Yrotation
  JOINT LeftUpLeg
  {
    OFFSET 8.64259 1.95398 -2.38835
    CHANNELS 3 Zrotation Xrotation Yrotation
    JOINT LeftLeg
    {
      OFFSET 43.7702 0 0
      CHANNELS 3 Zrotation Xrotation Yrotation
      JOINT LeftFoot
      {
        OFFSET 40.6238 0 0
        CHANNELS 3 Zrotation Xrotation Yrotation
        JOINT LeftToeBase
        {
          OFFSET 12.7242 0 0
          CHANNELS 3 Zrotation Xrotation Yrotation
          End Site
          {
            OFFSET 0 0 0
          }
        }
      }
    }
  }
  JOINT RightUpLeg
  {
    OFFSET -8.2249 1.95398 -2.59336
    CHANNELS 3 Zrotation Xrotation Yrotation
    JOINT RightLeg
    {
      OFFSET 43.5653 0 0
      CHANNELS 3 Zrotation Xrotation Yrotation
      JOINT RightFoot
      {
        OFFSET 40.6238 0 0
        CHANNELS 3 Zrotation Xrotation Yrotation
        JOINT RightToeBase
        {
          OFFSET 12.7242 0 0
          CHANNELS 3 Zrotation Xrotation Yrotation
          End Site
          {
            OFFSET 0 0 0
          }
        }
      }
    }
  }
  JOINT Spine
  {
    OFFSET 0.165834 0.87714 6.61349
    CHANNELS 3 Zrotation Xrotation Yrotation
    JOINT Spine1
    {
      OFFSET 7.38963 1.71661e-005 0
      CHANNELS 3 Zrotation Xrotation Yrotation
      JOINT Spine2
      {
        OFFSET 11.9445 1.14441e-005 0
        CHANNELS 3 Zrotation Xrotation Yrotation
        JOINT Spine3
        {
          OFFSET 14.7254 4.19617e-005 0
          CHANNELS 3 Zrotation Xrotation Yrotation
          JOINT Spine4
          {
            OFFSET 10.9679 0 0
            CHANNELS 3 Zrotation Xrotation Yrotation
            JOINT RightShoulder
            {
              OFFSET 2.46616 -1.6653 3.69651
              CHANNELS 3 Zrotation Xrotation Yrotation
              JOINT RightArm
              {
                OFFSET 13.0012 0 0
                CHANNELS 3 Zrotation Xrotation Yrotation
                JOINT RightForeArm
                {
                  OFFSET 28.7848 1.62311e-005 0
                  CHANNELS 3 Zrotation Xrotation Yrotation
                  JOINT RightHand
                  {
                    OFFSET 26.5688 1.62095e-005 0
                    CHANNELS 3 Zrotation Xrotation Yrotation
                    End Site
                    {
                      OFFSET 0 0 0
                    }
                  }
                }
              }
            }
            JOINT LeftShoulder
            {
              OFFSET 2.38034 -1.29275 -3.7523
              CHANNELS 3 Zrotation Xrotation Yrotation
              JOINT LeftArm
              {
                OFFSET 16.3182 6.07031e-005 0
                CHANNELS 3 Zrotation Xrotation Yrotation
                JOINT LeftForeArm
                {
                  OFFSET 27.0901 0 0
                  CHANNELS 3 Zrotation Xrotation Yrotation
                  JOINT LeftHand
                  {
                    OFFSET 24.5451 1.51738e-005 0
                    CHANNELS 3 Zrotation Xrotation Yrotation
                    End Site
                    {
                      OFFSET 0 0 0
                    }
                  }
                }
              }
            }
            JOINT Neck
            {
              OFFSET 5.0226 -0.0266342 0
              CHANNELS 3 Zrotation Xrotation Yrotation
              JOINT Head
              {
                OFFSET 6.69364 2.86102e-005 0
                CHANNELS 3 Zrotation Xrotation Yrotation
                End Site
                {
                  OFFSET 0 0 0
                }
              }
            }
          }
        }
      }
    }
  }
}
MOTION
Frames:	15
Frame Time:	0.0416667
11.972 96.5377 -2.79417 -98.6416 -41.0769 -102.815 -179.606 18.756 82.6577 -12.8408 23.1244 -0.597432 61.7075 0.871001 -3.99195 24.1438 -7.42487 11.4631 170.945 -16.7639 86.1664 -27.1792 -46.8652 -5.55573 76.3417 -13.2364 -5.42916 19.7241 1.63931 7.44889 1.92669 8.26876 -89.6866 10.3357 3.98184 0.276996 -1.32918 3.99017 0.101186 -23.9082 3.71425 1.46252 -3.89559 3.71423 1.46252 88.9289 -25.8401 -110.707 31.8792 -14.8514 -13.7764 -22.7626 -13.757 -41.0862 -9.77349 -0.127349 -3.84227 -86.5072 -54.0403 84.5732 -32.1387 12.3913 14.8384 7.44985 -10.1871 -13.7267 -3.546 -0.110043 -2.4198 -0.188639 -3.09846 1.19833 -4.03001 -3.19131 -7.54242 
4.2392 96.4855 4.2956 -99.3748 -34.4461 -104.932 -179.31 17.4816 80.477 -24.3368 21.9662 -0.347712 60.3139 -0.50872 -4.05996 22.3112 -6.46575 7.60859 170.565 -18.5888 82.8679 -39.1045 -49.0554 -13.0975 67.9997 -5.64482 -4.05205 26.6841 -2.15176 12.0007 2.17327 8.26852 -89.5354 10.3318 4.54229 0.529005 -1.33126 4.56116 0.328159 -23.9216 4.17295 1.87197 -3.90891 4.17296 1.87196 90.172 -24.8906 -108.509 39.4855 -17.0249 -10.5103 -15.1144 -18.1231 -24.5526 -10.4112 -0.191417 -3.17678 -87.2308 -56.8045 83.9531 -27.759 10.8394 11.245 7.32528 -11.8581 -14.7702 -2.10807 -0.0864518 -2.59938 0.780718 -3.89512 1.36842 -5.47267 -3.8931 -8.78933 
-3.00314 96.6756 9.74348 -99.7153 -27.983 -106.178 -177.625 12.3422 79.3246 -29.7817 18.0292 -1.55513 69.5681 5.01601 -2.29599 15.0532 -9.48533 6.14272 170.574 -11.1073 78.6288 -54.2355 -45.6173 -12.8744 55.374 3.46902 1.85133 32.1237 -2.12039 3.19225 1.72967 8.24423 -89.1538 10.3635 3.83317 1.34717 -1.30231 3.88875 1.17693 -23.8666 3.25105 2.43772 -3.85396 3.25106 2.43772 88.9423 -26.943 -110.17 42.4048 -20.9372 -7.65259 -8.19236 -18.4244 -13.3583 -8.55503 -0.0257792 -5.08723 -87.1016 -54.1436 83.7355 -25.6523 14.3816 5.20339 6.53157 -12.6034 -12.1425 -2.70362 -0.0955039 -3.11309 1.19703 -3.54014 -1.60265 -5.29584 -3.13946 -7.14839 
-9.26244 97.5092 13.0267 -98.7272 -20.0568 -103.666 -176.309 5.59043 80.7385 -28.3298 11.9556 -1.89552 74.4505 7.95705 -1.35965 14.3536 -9.13301 4.90334 175.147 1.33459 80.7508 -63.9243 -29.781 -9.562 62.0955 -0.70407 0.365557 26.8758 -0.0705601 3.51934 1.3209 8.23113 -89.2136 10.3937 2.99158 1.29937 -1.27429 3.0459 1.16635 -23.8244 2.46278 2.13866 -3.81176 2.46279 2.13867 89.2382 -27.3454 -109.382 43.1953 -21.8263 -3.37747 -10.8483 -18.3812 -19.4373 -8.64134 -0.0508005 -4.75725 -87.421 -52.3002 82.9774 -19.2708 19.4739 -5.85259 5.74512 -14.744 -4.68003 -2.71798 -0.0917317 -3.57813 1.68163 -2.51803 -3.15108 -5.20456 -1.91063 -5.90637 
-15.2304 98.6403 14.8355 -97.607 -12.8906 -98.4358 -174.532 -1.40039 84.82 -23.7422 7.30264 -1.57958 76.1878 8.28976 -3.37417 18.834 -10.0789 10.8274 178.275 11.8429 86.9788 -59.376 -17.1662 -6.30983 69.0493 -5.31071 -2.87631 25.2701 0.804442 2.82484 0.780398 8.17402 -89.605 10.524 1.73598 0.631428 -1.1459 1.76209 0.554388 -23.6869 1.46598 1.12404 -3.6743 1.46598 1.12405 90.1048 -26.8104 -107.821 42.1883 -21.0164 -1.21034 -14.8729 -16.2538 -27.5758 -8.7511 -0.0588368 -4.64585 -87.348 -49.9758 82.6999 -13.4956 14.892 -12.08 6.54387 -14.0345 -6.24123 -2.47697 -0.0904841 -3.77435 -0.440206 -0.875602 -3.89248 -4.17736 -0.304135 -4.42616 
-21.2626 98.6533 16.0901 -96.1631 -7.194 -93.8773 -172.679 -6.19698 88.1469 -20.2774 2.96921 -1.30875 78.6507 9.02474 -4.27257 20.5404 -10.4382 13.1794 179.262 19.8046 93.0216 -43.6211 -15.209 -3.21252 66.6965 -3.61171 -1.48053 24.9688 0.781575 3.34606 0.294432 8.11387 -89.8761 10.6457 0.643426 0.187936 -1.02514 0.65109 0.159427 -23.5612 0.557182 0.372624 -3.54854 0.557221 0.372637 89.9506 -28.5739 -107.417 39.7356 -17.5357 -0.23457 -18.6788 -17.1329 -32.6733 -9.4692 -0.135449 -3.69525 -86.7345 -46.1977 82.9935 -9.52345 6.84829 -15.3956 8.25006 -11.9993 -12.0899 -0.241468 -0.0983042 -4.7889 -0.482763 0.506957 -6.18757 -3.85684 1.34607 -1.4097 
-27.9593 97.658 17.0894 -94.9315 -5.24459 -91.41 -171.18 -11.502 90.4771 -16.4912 0.690117 -1.16067 82.5482 10.8651 -5.76178 19.466 -11.8076 14.4347 179.522 22.6231 95.7365 -22.8909 -15.1361 -0.772035 64.2112 -2.42216 -1.5412 22.2585 1.47922 4.81137 -0.089257 8.06439 -90.039 10.7456 -0.195657 -0.0591377 -0.925353 -0.198072 -0.0504763 -23.4606 -0.168864 -0.115208 -3.4479 -0.168805 -0.115204 90.4962 -29.7081 -105.882 40.2331 -12.7592 0.715293 -16.2754 -13.5498 -30.1825 -13.2153 -0.316972 -2.3948 -86.6622 -43.3272 82.6006 -6.88633 0.877858 -21.4128 8.81017 -12.1649 -14.4046 1.78148 -0.0992273 -4.61169 0.14186 0.158805 -7.36713 -3.91915 1.19657 -0.471537 
-36.2341 96.2509 18.1584 -94.8846 -7.55091 -89.8289 -169.392 -17.8589 93.5357 -13.1203 3.19713 -0.268739 83.2529 13.118 -3.27675 22.9194 -8.13492 11.392 179.684 22.8702 95.9371 -14.5444 -13.5046 -0.557322 65.7138 -3.31733 -2.16461 19.5394 2.44605 5.30004 -0.489718 8.07297 -90.2567 10.7251 -1.09354 -0.410891 -0.945487 -1.11053 -0.362367 -23.4828 -0.91948 -0.720559 -3.47017 -0.919474 -0.720564 90.4158 -30.9686 -105.581 41.389 -13.0609 3.16374 -13.9016 -14.6128 -24.4677 -10.8068 -0.0781101 -4.97324 -87.3779 -43.9103 81.5485 -7.17318 -2.48149 -29.4892 9.66431 -10.6531 -15.5825 2.54213 -0.116051 -4.96682 1.4565 -0.965111 -7.73 -5.02836 0.240081 -0.857994 
-46.6144 95.7374 18.8655 -95.8025 -9.7825 -87.1329 -165.226 -21.7454 100.195 -15.2895 7.56711 0.573274 77.5175 10.8669 -1.48427 37.5492 -2.08126 17.1318 178.362 22.4341 97.7135 -21.9808 -11.7354 0.95661 61.8971 0.322717 -1.31189 23.2902 1.72015 2.57403 -0.627596 8.07072 -90.5863 10.7265 -1.51999 -1.02559 -0.94383 -1.56364 -0.957692 -23.4804 -1.14153 -1.43498 -3.46774 -1.14153 -1.43498 90.4999 -31.3918 -105.264 44.0139 -14.4626 5.39572 -10.5016 -16.7267 -16.7416 -5.27563 0.0139512 -5.91013 -88.0028 -45.274 80.8194 -10.6297 0.890787 -33.1194 12.1708 -3.11714 -20.8199 -0.570828 -0.105867 -6.09973 1.70101 -1.94973 -8.58652 -5.94509 -0.591092 -0.522747 
-57.1114 96.0537 19.4608 -97.1466 -9.19711 -85.6852 -164.793 -17.3813 103.159 -31.8313 10.3323 2.06993 65.9945 4.04989 1.51948 33.3046 -4.51154 16.7316 177.237 19.5933 99.7168 -30.8085 -11.8738 2.08486 64.7428 -1.08893 -1.36954 17.2681 4.0659 3.44117 -0.600653 8.00215 -90.7008 10.86 -1.51961 -1.25156 -0.810594 -1.57323 -1.18347 -23.345 -1.07328 -1.65036 -3.33231 -1.0733 -1.65037 90.9904 -30.5526 -104.597 46.2525 -13.2201 6.61734 -9.60746 -15.4299 -14.5021 -4.81663 0.0500461 -7.20641 -88.2313 -46.8817 80.7805 -12.8697 9.93733 -29.2258 15.6639 5.36799 -24.4423 -5.24581 -0.0152879 -7.36883 0.338787 -1.98299 -7.20025 -6.03024 -0.891162 -1.97157 
-65.3806 97.2418 19.8934 -98.915 -9.29999 -83.9604 -168.173 -2.30575 104.567 -57.4955 14.2632 4.07763 55.9435 -3.56682 0.874669 3.25867 -11.9996 0.333877 178.223 11.8829 102.491 -30.1115 -11.5567 1.97774 67.5421 -3.87073 -3.85307 19.2879 3.22486 3.32328 -0.451761 8.2792 -90.9049 10.3022 -1.31382 -1.68331 -1.36912 -1.38662 -1.62387 -23.8977 -0.74731 -2.00024 -3.88508 -0.747312 -2.00025 90.7039 -30.2752 -105.262 43.937 -12.8393 3.87858 -11.7523 -15.0416 -18.9858 -7.04993 0.0145486 -5.83794 -88.2838 -48.0784 80.9333 -16.7669 16.0952 -25.6409 13.5533 7.13303 -17.5478 -4.63035 -0.0544772 -6.18009 1.27087 -2.15649 -5.99781 -5.34707 -1.20457 -1.3243 
-71.8686 98.4344 20.9681 -98.3293 -8.54812 -85.9807 -172.247 10.8757 98.6124 -65.4758 12.38 3.55389 66.258 3.02758 2.49611 7.59636 -11.5823 3.19394 178.19 6.67753 100.833 -28.1712 -12.5731 0.634164 70.1133 -5.47352 -3.65024 20.3581 2.81988 3.13613 -0.094332 8.27441 -90.6838 10.323 -0.500757 -1.31502 -1.3486 -0.558152 -1.29172 -23.878 -0.0824797 -1.40471 -3.86532 -0.0824668 -1.40471 90.4209 -29.5356 -106.097 40.1577 -12.3969 -0.971941 -14.503 -16.0511 -23.6965 -9.40923 -0.110003 -4.05609 -88.3476 -48.656 80.948 -20.2343 23.1447 -20.1817 8.07509 0.804917 -7.72906 -3.84356 -0.0648053 -6.17312 -0.841909 -2.69643 -5.41262 -4.30512 -1.94544 -1.7405 
-78.5364 99.0715 22.5082 -97.6369 -3.88313 -88.2214 -172.608 18.1464 92.2943 -51.2849 1.11947 0.708708 71.5789 6.37488 0.42835 7.14742 -12.7877 4.59647 177.629 1.87257 97.4974 -27.5139 -17.9868 -1.54227 72.6606 -7.30076 -4.24332 22.5548 2.15135 2.23673 0.499239 8.30389 -90.2824 10.2694 0.865655 -0.634887 -1.40148 0.836891 -0.672383 -23.9386 1.01646 -0.34535 -3.92595 1.01644 -0.345361 89.7607 -29.0087 -107.623 35.4945 -13.5247 -7.8355 -15.5789 -15.3889 -26.5479 -10.4476 -0.172747 -3.38842 -87.8297 -49.3944 81.8705 -23.9807 27.1136 -7.75812 7.22709 -1.60622 -11.0065 -5.68953 -0.0933699 -4.48417 -2.31039 -2.66883 -4.69938 -3.22162 -2.08655 -0.797117 
-86.1288 98.8916 24.4102 -96.8755 -0.0297525 -90.0493 -174.386 17.8734 89.0757 -22.8505 0.792707 -1.0921 64.6874 3.92484 1.27593 14.6206 -9.40574 5.62136 176.022 -3.20733 93.9359 -26.937 -23.405 -2.78715 75.8444 -9.99146 -4.45991 22.7587 2.29868 1.47068 0.926603 8.28614 -90.1285 10.3057 1.78728 -0.409551 -1.36412 1.76754 -0.48785 -23.9091 1.82772 0.146717 -3.8965 1.82773 0.146718 89.6519 -27.3713 -108.522 30.4047 -15.6836 -15.3626 -16.5355 -16.5127 -28.1682 -9.74279 -0.0683445 -4.57818 -87.7184 -51.4906 82.4061 -28.2491 24.6188 5.6088 7.60286 -3.81297 -14.244 -4.21042 -0.112999 -2.96758 -2.95011 -2.44588 -0.577601 -3.35725 -2.36402 -1.23332 
-95.0389 97.8523 26.1114 -96.8993 1.89041 -90.7726 -176.912 17.7569 87.7749 -6.57517 -1.34612 -0.8174 63.9281 2.50129 -2.11804 19.3692 -8.507 8.48577 173.125 -10.3468 89.9151 -24.1517 -27.3652 -2.80078 78.4744 -12.784 -5.09605 24.9203 0.951106 2.80419 1.20912 8.26018 -90.1308 10.3598 2.34892 -0.464262 -1.3091 2.3262 -0.56725 -23.8613 2.3798 0.263563 -3.84865 2.37978 0.263554 89.479 -26.6547 -109.189 27.0249 -15.1059 -19.8871 -17.7462 -16.6375 -30.0451 -9.10627 -0.148667 -3.43541 -87.9147 -52.5849 82.305 -31.91 21.4824 13.6033 6.98362 -5.47957 -10.9293 -6.67384 -0.160807 -2.42957 -3.43279 -2.40292 2.7129 -2.98881 -2.69497 -2.04726 
